<?xml version="1.0" encoding="utf-8"?>
<!-- Generator: Adobe Illustrator 27.5.0, SVG Export Plug-In . SVG Version: 6.00 Build 0)  -->
<svg version="1.1" xmlns="http://www.w3.org/2000/svg" xmlns:xlink="http://www.w3.org/1999/xlink" x="0px" y="0px"
	 viewBox="0 0 500 500" style="enable-background:new 0 0 500 500;" xml:space="preserve">
<g id="BACKGROUND">
	<rect style="fill:#FFFFFF;" width="500" height="500"/>
</g>
<g id="OBJECTS">
	<g>
		<path style="fill:#FFDFBA;" d="M285.812,257.408c2.213-9.866,8.245-20.681,14.045-28.819
			c12.436-17.447,18.814-3.163,16.935,13.636c10.944-21.708,31.664-38.247,55.258-44.107c2.755-0.684,5.919-1.159,8.225,0.497
			c3.311,2.376,2.76,7.416,1.525,11.299c-2.61,8.209-6.709,15.941-12.038,22.709c11.667-9.74,26.581-15.521,41.764-16.191
			c5.883-0.259,12.562,0.62,16.096,5.33c3.289,4.384,2.594,10.786-0.206,15.498s-7.305,8.117-11.696,11.397
			c-11.931,8.912-23.863,17.824-35.794,26.736c6.541-2.098,13.426-4.22,20.168-2.903c6.741,1.317,13.091,7.362,12.189,14.171
			c-0.838,6.324-7.106,10.326-12.931,12.926c-8.65,3.86-17.744,6.616-26.81,9.362c-18.126,5.489-36.252,10.978-54.378,16.467
			c-13.882,4.204-32.204,2.928-34.149-14.692C282.185,294.132,282.179,273.609,285.812,257.408z"/>
		<path style="fill:#FFDFBA;" d="M214.188,257.408c-2.213-9.866-8.245-20.681-14.045-28.819
			c-12.436-17.447-18.814-3.163-16.935,13.636c-10.944-21.708-31.665-38.247-55.258-44.107c-2.755-0.684-5.919-1.159-8.225,0.497
			c-3.311,2.376-2.76,7.416-1.525,11.299c2.61,8.209,6.709,15.941,12.037,22.709c-11.667-9.74-26.58-15.521-41.764-16.191
			c-5.883-0.259-12.562,0.62-16.096,5.33c-3.289,4.384-2.593,10.786,0.206,15.498c2.799,4.712,7.305,8.117,11.696,11.397
			c11.931,8.912,23.863,17.824,35.794,26.736c-6.541-2.098-13.426-4.22-20.168-2.903s-13.091,7.362-12.189,14.171
			c0.838,6.324,7.106,10.326,12.931,12.926c8.65,3.86,17.744,6.616,26.81,9.362c18.126,5.489,36.252,10.978,54.378,16.467
			c13.881,4.204,32.204,2.928,34.149-14.692C217.815,294.132,217.821,273.609,214.188,257.408z"/>
	</g>
	<g>
		<g>
			<path style="fill:#C56E53;" d="M359.154,159.051l-1.125,1.717c-4.884,7.459-4.173,17.936-4.795,26.49
				c-0.651,2.516-0.414,5.653-0.592,8.257c-0.207,2.871-0.444,5.742-0.651,8.642c-0.74,10.152-1.776,20.363-4.292,30.278
				c-1.243,5.002-2.871,9.915-5.061,14.591c-1.214,2.604-2.22,5.387-4.232,7.488c-1.776,1.865-3.877,3.374-6.186,4.41
				c-11.484,5.061-25.395,1.332-36.789-4.41c-2.901-1.45-5.653-3.049-8.139-4.647c-5.12-3.285-9.974-7.074-14.473-11.188
				c-0.77-0.71-5.564-4.232-5.475-5.416l3.019-55.88l0.71-13.26c0,0,1.776,1.213,4.765,3.67c8.228,6.748,25.72,22.908,40.607,48.983
				c2.102,3.67,4.144,7.547,6.097,11.602c0,0,7.991-25.483,21.576-53.63c2.368-4.883,4.055-10.093,4.972-15.45l-5.535-7.015
				l3.197-3.966l3.551,3.581l8.199-6.57L359.154,159.051z"/>
			<path style="fill:#223A42;" d="M356.875,162.31c0.764-0.164,1.375-0.703,1.633-1.439l14.367-41.037
				c0.236-0.674,0.132-1.424-0.276-2.009c-0.409-0.584-1.078-0.939-1.791-0.949l-16.163-0.228c-0.168-0.002-0.335,0.015-0.498,0.05
				c-0.781,0.168-1.415,0.745-1.655,1.507l-11.811,37.642c-0.184,0.583-0.122,1.201,0.173,1.737
				c0.291,0.529,0.793,0.921,1.376,1.077l13.608,3.625C356.176,162.374,356.535,162.383,356.875,162.31L356.875,162.31z"/>
			<path style="fill:#2C4248;" d="M355.795,161.611c0.764-0.164,1.375-0.703,1.633-1.439l14.367-41.038
				c0.236-0.674,0.132-1.424-0.276-2.009c-0.409-0.584-1.078-0.939-1.791-0.95l-16.163-0.228c-0.168-0.002-0.335,0.015-0.498,0.05
				c-0.781,0.168-1.415,0.745-1.655,1.507L339.6,155.147c-0.184,0.583-0.122,1.201,0.173,1.737c0.291,0.529,0.793,0.921,1.376,1.077
				l13.608,3.625C355.096,161.675,355.455,161.685,355.795,161.611L355.795,161.611z"/>
			<path style="fill:#B5FDFF;" d="M340.468,155.419l11.812-37.641c0.174-0.554,0.691-0.929,1.272-0.921l16.163,0.228
				c0.897,0.013,1.518,0.901,1.222,1.748l-14.367,41.037c-0.227,0.648-0.915,1.012-1.578,0.835l-13.608-3.624
				C340.66,156.89,340.244,156.133,340.468,155.419z"/>
			<path style="fill:#C56E53;" d="M339.626,148.396c0.123-0.521,0.482-0.868,0.943-1.093c1.149-0.562,2.298-1.123,3.447-1.685
				c0.163-0.079,0.34-0.161,0.518-0.127c0.228,0.044,0.378,0.265,0.463,0.481c0.207,0.526,0.176,1.141-0.084,1.644
				c-0.667,1.292-2.434,1.71-3.457,2.664c-0.458,0.428-0.794,1.069-0.95,1.676c0.023-0.091-0.349-0.878-0.391-1.009
				C339.854,150.129,339.419,149.275,339.626,148.396z"/>
			<path style="fill:#C56E53;" d="M363.248,150.599c0.413-0.352,0.789-0.74,1.139-1.192c0.679-0.877,1.287-1.796,1.829-2.764
				c0.363-0.647,0.682-1.424,0.4-2.111c-0.537-1.305-1.92-1.688-3.035-2.309c-0.722-0.402-1.4-0.878-2.127-1.27
				c-0.79-0.426-1.697-0.878-2.553-1.135c-0.083-0.025-0.176-0.049-0.254-0.011c-0.104,0.052-0.13,0.189-0.127,0.305
				c0.013,0.675,0.496,1.244,0.992,1.702c0.622,0.574,1.309,1.077,2.044,1.496c0.697,0.397,2.016,0.946,2.209,1.814
				c0.049,0.218,0.012,0.445-0.046,0.66c-0.299,1.111-0.622,2.127-1.058,3.198c-0.184,0.451-0.318,0.919-0.434,1.392
				c-0.025,0.103-0.189,1.105-0.212,1.12C362.462,151.212,362.87,150.921,363.248,150.599z"/>
			<path style="fill:#C56E53;" d="M362.499,152.734c0.413-0.352,0.789-0.74,1.139-1.192c0.679-0.877,1.287-1.796,1.829-2.764
				c0.363-0.647,0.682-1.424,0.4-2.111c-0.537-1.305-1.92-1.688-3.036-2.309c-0.722-0.402-1.4-0.878-2.127-1.27
				c-0.79-0.426-1.697-0.878-2.553-1.135c-0.083-0.025-0.176-0.049-0.254-0.011c-0.104,0.052-0.13,0.189-0.127,0.305
				c0.013,0.675,0.496,1.244,0.992,1.702c0.622,0.574,1.309,1.077,2.044,1.496c0.697,0.397,2.016,0.946,2.209,1.814
				c0.049,0.217,0.012,0.445-0.046,0.66c-0.299,1.111-0.622,2.127-1.058,3.197c-0.184,0.451-0.318,0.919-0.434,1.392
				c-0.025,0.103-0.189,1.106-0.212,1.12C361.713,153.348,362.121,153.056,362.499,152.734z"/>
			<path style="fill:#C56E53;" d="M361.558,155.142c0.413-0.352,0.789-0.74,1.139-1.192c0.679-0.877,1.287-1.796,1.829-2.764
				c0.363-0.647,0.682-1.424,0.4-2.111c-0.537-1.305-1.92-1.688-3.036-2.309c-0.721-0.402-1.4-0.878-2.127-1.27
				c-0.79-0.426-1.697-0.878-2.553-1.135c-0.083-0.025-0.176-0.049-0.254-0.011c-0.104,0.052-0.13,0.189-0.127,0.305
				c0.013,0.675,0.496,1.244,0.992,1.702c0.622,0.574,1.309,1.077,2.044,1.496c0.697,0.398,2.016,0.946,2.209,1.814
				c0.049,0.217,0.012,0.445-0.046,0.66c-0.299,1.111-0.622,2.127-1.058,3.197c-0.184,0.451-0.318,0.919-0.434,1.392
				c-0.025,0.103-0.189,1.106-0.212,1.12C360.772,155.755,361.18,155.463,361.558,155.142z"/>
			<path style="fill:#C56E53;" d="M360.437,157.862c0.413-0.352,0.789-0.74,1.139-1.192c0.679-0.877,1.287-1.796,1.829-2.764
				c0.363-0.647,0.682-1.424,0.4-2.111c-0.536-1.305-1.92-1.688-3.035-2.309c-0.721-0.402-1.4-0.878-2.127-1.27
				c-0.79-0.426-1.697-0.878-2.553-1.135c-0.083-0.025-0.176-0.049-0.254-0.011c-0.105,0.052-0.13,0.189-0.127,0.305
				c0.013,0.675,0.496,1.244,0.992,1.702c0.622,0.574,1.309,1.077,2.044,1.496c0.697,0.398,2.016,0.946,2.209,1.814
				c0.048,0.217,0.012,0.445-0.046,0.66c-0.299,1.111-0.622,2.127-1.058,3.198c-0.184,0.451-0.318,0.919-0.434,1.392
				c-0.025,0.103-0.189,1.106-0.212,1.12C359.651,158.475,360.059,158.184,360.437,157.862z"/>
			<path style="fill:#A1424B;" d="M316.445,218.778c-1.332,7.725-5.89,21.34-21.014,37.737c-2.901-1.45-5.653-3.049-8.139-4.647
				c-5.12-3.285-9.974-7.074-14.473-11.188c-0.77-0.71-5.564-4.232-5.475-5.416l3.019-55.88l3.848-10.152
				c0,0,0.562,0.148,1.628,0.562C284.066,176.543,301.558,192.703,316.445,218.778z"/>
			<path style="fill:#5D1931;" d="M271.263,165.999c0,0,21.099,5.394,42.681,42.656c0,0,2.466,20.841-25.281,48.589l-39.709-32.557
				L271.263,165.999z"/>
		</g>
		<path style="fill:#812024;" d="M283.326,316.352c0.59,2.59,0.295,5.049-2.098,7.377c-7.41,7.312-23.575,9.804-33.379,11.312
			c-13.837,2.099-27.903,2.033-41.871,1.935c5.869-19.378,11.41-35.674,7.607-55.642c-0.197-1.082-0.393-2.131-0.656-3.18
			c-5.115-21.542-17.378-39.609-29.116-57.97c-0.033,0-0.721-12.46-1.443-24.854c-0.754-12.296,2.361-24.231,2.361-24.231
			s41.346-7.345,46.92-8.394c5.607-1.049,39.608,3.312,39.608,3.312c12.82,18.132,17.083,40.494,17.247,62.069
			c0.164,16.099-1.836,32.133-5.181,47.806c-1.672,7.935-5.017,15.312-5.771,23.444c-0.525,5.738,4.361,11.41,5.705,16.656
			C283.293,316.122,283.326,316.22,283.326,316.352z"/>
		<path style="fill:#5D1931;" d="M281.228,323.729c-7.41,7.312-23.575,9.804-33.379,11.312c-13.837,2.099-27.903,2.033-41.871,1.935
			c5.869-19.378,11.41-35.674,7.607-55.642c-0.197-1.082-0.393-2.131-0.656-3.18c-5.115-21.542-17.378-39.609-29.116-57.97
			c-0.033,0-0.721-12.46-1.443-24.854c1.049-1.147,2.23-2.197,3.476-3.115c6.033-4.295,15.41-6.558,22.82-5.476
			c9.902,1.446,12.311,29.598,13.726,37.304c2.354,12.824,3.775,25.856,4.108,38.893c0.301,11.769,2.078,24.234-0.029,35.94
			c-1.508,8.328,1.049,14.82,8.886,19.575c6.262,3.804,13.935,4.787,21.247,4.263c8.754-0.623,17.804-4.689,26.657-6.361
			c0.033,0,0.033,0,0.065,0C283.916,318.942,283.621,321.401,281.228,323.729z"/>
		<path style="fill:#C56E53;" d="M240.522,159.881l16.746,4.483c0,0,8.176,17.516-8.967,17.952
			c-18.949,0.482-36.508-16.037-36.508-16.037L240.522,159.881z"/>
		<path style="fill:#C56E53;" d="M224.449,140.133c0.551,3.758,0.957,7.755,1.257,11.501c0.694,8.725,0.802,16.097,0.802,16.097
			c15.977,8.916,24.642-1.257,24.642-1.257c-1.675-4.189-2.86-7.911-3.686-11.166c-1.891-7.408-1.939-12.447-1.712-15.175H224.449z"
			/>
		<path style="fill:#A1424B;" d="M224.449,140.133c0.551,3.758,0.957,7.755,1.257,11.501c8.402,3.938,15.726,4.584,21.758,3.674
			c-1.891-7.408-1.939-12.447-1.712-15.175H224.449z"/>
		<path style="fill:#C56E53;" d="M266.722,141.618c0,0-16.782,19.889-44.159,4.824c-27.229-14.976-23.855-62.184-20.777-74.466
			c0.03-0.089,0.03-0.148,0.059-0.237c0.03-0.059,0.059-0.118,0.059-0.177c1.953-7.103,10.98-16.545,32.202-16.19
			c8.376,0.178,14.68,3.137,19.356,6.926c0.533,0.444,1.036,0.888,1.539,1.362c1.154,1.065,2.19,2.22,3.137,3.433
			c3.433,4.292,5.683,9.441,6.63,14.917c0.177,1.154,0.326,2.308,0.385,3.463c0.059,0.503,0.089,0.977,0.118,1.48l1.302,49.398
			l0.118,3.315L266.722,141.618z"/>
		<path style="fill:#A1424B;" d="M266.722,141.618c0,0-16.782,19.889-44.159,4.824c-27.229-14.976-23.855-62.184-20.777-74.466
			c0.03-0.089,0.03-0.148,0.059-0.237c0.03-0.059,0.059-0.118,0.059-0.177l42.087-6.127c4.292,0.444,7.311-0.296,11.01-1.776
			c1.154,1.065,2.19,2.22,3.137,3.433c3.433,4.292,5.683,9.441,6.63,14.917c0.177,1.154,0.326,2.308,0.385,3.463
			c-0.888-0.03-1.776-0.237-2.575-0.622c-1.036-0.503-1.953-1.273-3.019-1.716c-0.947-0.385-1.983-0.503-2.989-0.592
			c-6.334-0.444-12.845,0.799-18.913-0.977c-2.19-0.651-4.291-1.717-6.393-2.634c-0.237-0.089-0.503-0.207-0.77-0.118
			c-0.266,0.059-0.414,0.326-0.562,0.592c-2.693,4.735-4.676,9.915-7.962,14.266c-1.243,1.657-2.664,3.196-3.611,5.031
			c-2.338,4.617-1.214,10.152-0.03,15.183l3.285,13.94c0.089,0.503,0.207,1.095-0.148,1.45c-0.267,0.326-0.74,0.355-1.125,0.562
			c-1.332,0.681,3.374,7.488,4.173,8.524c2.101,2.723,4.765,5.002,7.755,6.689c7.488,4.232,16.634,4.262,24.418,0.681
			c3.137-1.45,6.718-3.433,10.004-6.067L266.722,141.618z"/>
		<path style="fill:#201642;" d="M262.751,80.793c-0.626-0.344-1.289-0.617-1.962-0.81c-2.911-0.836-6.006-0.532-9.034-0.471
			c-6.371,0.128-12.762-0.864-18.794-2.919c-1.742-0.593-3.522-1.32-4.742-2.697c-2.602,8.425-7.082,16.265-13.02,22.783
			c-1.087,1.193-2.247,2.381-2.854,3.876c-1.3,3.202,1.63,5.028,2.467,7.849c0.835,2.815,1.603,5.652,2.404,8.477
			c1.064,3.753,2.128,7.506,3.192,11.259l-2.841,0.197c0,0-8.38-16.331-9.992-14.242c-1.612,2.088-7.518,11.942,7.997,20.31
			c0.594,0.594,0.482,6.593,0.244,7.335c-2.433-0.977-4.997-3.558-7.088-5.228c-2.398-1.915-4.676-3.981-6.605-6.378
			c-3.52-4.374-6.27-9.334-8.353-14.54c-4.133-10.331-5.768-21.669-5.373-32.759c0.193-5.402,0.837-10.883,2.991-15.84
			c0.33-0.759,0.707-1.521,1.313-2.086c0.602-0.561,1.384-0.883,2.154-1.172c2.113-0.791,4.286-1.42,6.495-1.879
			c0.654-2.841,2.801-5.17,5.326-6.628c2.525-1.457,5.415-2.147,8.285-2.664c2.037-0.367,4.088-0.657,6.146-0.868
			c12.067-1.237,25.818-0.75,35.709,7.137c3.95,3.15,7.119,7.291,8.901,12.034c0.902,2.401,1.442,4.933,1.597,7.493
			c0.159,2.62-0.836,5.308-0.682,7.817C266.49,83.858,264.833,81.937,262.751,80.793z"/>
		<path style="fill:#A1424B;" d="M248.754,107.829c1.805-1.257,5.41,4.555,6.192,5.664c1.882,2.672,3.416,6.53-0.679,8.012
			c-1.811,0.655-4.348,0.924-5.971-0.35c-1.82-1.428-1.511-4.322-1.28-6.341C247.232,112.933,247.031,109.03,248.754,107.829z"/>
		<g>
			<path style="fill:#201642;" d="M231.661,110.766c-0.034-3.174,0.935-5.48,2.164-5.15c1.229,0.33,2.252,3.171,2.286,6.346
				c0.034,3.174-0.935,5.48-2.164,5.15C232.718,116.782,231.695,113.941,231.661,110.766z"/>
			<path style="fill:#201642;" d="M261.157,103.681c1.229,0.33,2.253,3.171,2.286,6.346c0.034,3.174-0.935,5.48-2.164,5.15
				c-1.229-0.33-2.253-3.171-2.286-6.346C258.959,105.657,259.928,103.351,261.157,103.681z"/>
		</g>
		<path style="fill:#201642;" d="M239.211,103.311c0,0-8.788-4.255-14.475,1.295l-5.688-5.273
			C219.048,99.333,230.498,90.732,239.211,103.311z"/>
		<path style="fill:#201642;" d="M254.195,102.354c0,0,7.727-4.255,11.261,1.295l1.266-5.273
			C266.722,98.377,259.608,89.776,254.195,102.354z"/>
		<g>
			<path style="fill:#9B4273;" d="M255.682,139.043c-0.71,0.207-1.391,0.414-2.042,0.562c-19.445,4.913-15.183-12.727-15.183-12.727
				c7.163,2.013,11.957,1.598,14.621,0.947c1.569-0.385,2.427-0.829,2.575-0.917C252.9,130.993,255.682,139.043,255.682,139.043z"/>
			<path style="fill:#FFFFFF;" d="M253.64,139.605c-19.445,4.913-15.183-12.727-15.183-12.727
				c7.163,2.013,11.957,1.598,14.621,0.947L253.64,139.605z"/>
		</g>
		<g>
			<path style="fill:#FFB82C;" d="M310.589,204.274c-2.77-2.086-6.257-2.483-9.516-2.27c-8.266,0.542-15.985,4.535-24.277,4.765
				c-1.585,0.044-3.382-0.154-4.457-1.503c-0.801-1.006-0.988-2.398-1.169-3.698c-0.822-5.897-2.261-11.723-4.277-17.323
				c-1.637-4.545-3.917-9.251-7.852-11.54c-3.935-2.289-9.751-0.661-10.486,4.035c-0.548,3.5,1.752,6.841,2.7,10.32
				c2.071,7.601-2.379,14.867-5.19,21.897c-1.518,3.795-2.582,7.829-3.173,11.97c-0.47,3.296,0.619,7.652-1.754,10.069
				c-0.307,0.313-0.639,0.587-0.989,0.835l-0.011-0.047c-0.615-2.561-3.353-4.099-6.116-3.436l-18.267,4.387
				c-2.763,0.663-4.504,3.278-3.889,5.839l10.679,44.466c0.615,2.561,3.353,4.099,6.116,3.436l18.267-4.387
				c2.763-0.664,4.504-3.277,3.889-5.839l-0.08-0.331c4.67-0.385,9.327-0.972,13.998-1.701c10.564-1.647,21.016-3.942,31.294-6.87
				c5.45-1.553,11.042-3.398,15.154-7.526c0.813-0.816,1.577-1.747,1.933-2.907c0.892-2.903-0.979-6.027-2.742-8.555
				c2.278-0.993,3.953-3.39,4.264-6.1c0.31-2.71-0.755-5.638-2.712-7.451c1.286-1.626,2.517-3.395,3.014-5.51
				c0.497-2.115,0.106-4.66-1.429-6.169c-0.666-0.654-1.521-1.101-2.014-1.918c-0.727-1.203-0.418-2.802,0.211-3.997
				c0.629-1.196,1.539-2.195,2.057-3.458C315.09,210.527,313.359,206.36,310.589,204.274z"/>
			<path style="fill:#FF8A05;" d="M235.215,258.889c-0.934,2.419-3.195,4.278-5.749,4.727c-2.555,0.449-5.313-0.528-7.017-2.485
				c-2.469-2.836-2.021,1.085-1.543,2.812c1.277,4.611,2.654,9.194,4.131,13.745c0.32,0.986,0.681,2.025,1.479,2.687
				c0.82,0.68,1.944,0.832,3.006,0.917c2.509,0.201,5.037,0.175,7.542-0.076c2.409-0.242,5.019-0.819,6.517-2.721
				c1.449-1.839,1.48-4.453,2.731-6.432c4.996,0.31,10.054-0.426,14.753-2.148c1.731-0.634,3.561-1.543,4.291-3.236
				c0.173-0.402,0.276-0.852,0.183-1.28c-0.093-0.427-0.37-0.79-0.667-1.111c-3.341-3.617-9.179-3.284-13.412-5.799
				c-4.529-2.691-6.482-8.092-9.105-12.66c-0.644-1.121-1.367-2.235-2.403-3.008c-1.036-0.773-2.45-1.15-3.649-0.666
				c-2.41,0.975-1.031,4.853-0.884,6.646C235.676,251.954,236.388,255.851,235.215,258.889z"/>
			<path style="fill:#FF8A05;" d="M257.794,191.079c0.7,1.825,1.534,3.607,2.019,5.501c0.682,2.663,0.65,5.479,0.15,8.182
				c-0.356,1.924-0.827,4.243,0.615,5.565c0.595,0.546,1.409,0.783,2.204,0.919c2.454,0.42,5.314-0.15,6.703-2.216
				c1.112-1.654,1.019-3.814,0.817-5.796c-0.889-8.708-2.727-17.592-7.629-24.953c-0.652-0.98-1.317-1.973-2.211-2.737
				c-0.895-0.764-2.067-1.284-3.235-1.141C250.718,175.199,256.625,188.033,257.794,191.079z"/>
			<path style="fill:#FF8A05;" d="M288.73,211.833c-2.07,0.917-4.275,1.952-5.403,3.915c-1.234,2.148-0.842,4.875,0.059,7.183
				c0.901,2.308,2.265,4.432,2.96,6.81c0.859,2.941,0.62,6.189-0.661,8.973c-1.238,2.69-3.396,4.938-4.257,7.771
				c-0.92,3.03-0.243,6.378-1.212,9.392c-0.819,2.548-2.787,4.786-2.78,7.463c0.002,0.718,0.18,1.484,0.714,1.964
				c0.342,0.308,0.794,0.465,1.243,0.565c1.958,0.439,3.993-0.051,5.934-0.564c5.681-1.503,11.32-3.228,16.693-5.607
				c1.286-0.57,2.578-1.192,3.608-2.151c1.029-0.959,1.774-2.316,1.684-3.72c-0.126-1.978-1.823-3.613-1.874-5.594
				c-0.06-2.335,2.084-4.017,3.648-5.753c0.49-0.544,0.952-1.157,1.085-1.877c0.24-1.296-0.622-2.506-1.365-3.595
				c-0.764-1.119-1.461-2.33-1.67-3.669c-0.208-1.339,0.159-2.837,1.216-3.685c0.494-0.396,1.123-0.646,1.49-1.163
				c0.921-1.293-0.372-2.945-1.313-4.224c-1.784-2.425-2.429-5.654-1.713-8.578c0.294-1.202,0.808-2.427,0.532-3.633
				c-0.34-1.484-1.768-2.447-3.161-3.061c-2.325-1.025-4.909-1.771-7.308-0.847C294.128,209.208,291.436,210.635,288.73,211.833z"/>
			<path style="fill:#FFD540;" d="M249.691,179.839c0.452,2.807,1.98,5.338,2.571,8.119c1.135,5.341-1.292,10.773-1.392,16.233
				c-0.016,0.887,0.04,1.813,0.475,2.586c0.435,0.773,1.348,1.341,2.206,1.117c0.564-0.147,0.997-0.593,1.369-1.042
				c2.906-3.511,3.892-8.21,4.371-12.742c0.378-3.574,0.496-7.222-0.286-10.73c-0.679-3.044-2.211-6.938-5.067-8.607
				C250.48,172.751,249.237,177.016,249.691,179.839z"/>
			<path style="fill:#FFD540;" d="M299.864,212.65c0.538,0.372,1.118,0.698,1.687,1.007c2.015,1.094,5.04,1.393,7.2,0.534
				c4.522-1.797,1.766-5.161-0.194-7.934c-1.921-2.719-5.395-3.445-8.44-1.746c-2.036,1.136-3.228,3.832-2.251,5.948
				C298.289,211.376,299.025,212.069,299.864,212.65z"/>
			<path style="fill:#FFD540;" d="M303.792,225.746c-0.82,0.899-1.297,2.341-0.567,3.316c0.3,0.4,0.752,0.651,1.192,0.889
				c1.077,0.583,2.178,1.162,3.376,1.411c1.199,0.249,2.528,0.13,3.517-0.591C316.019,227.338,308.037,221.092,303.792,225.746z"/>
			<path style="fill:#FFD540;" d="M221.532,232.741c-3.636,1.074-7.211,3.954-7.253,7.746c-0.021,1.926,0.868,3.731,1.737,5.45
				c1.267,2.507,2.534,5.014,3.801,7.52c0.496,0.981,1.291,2.124,2.374,1.938c0.748-0.128,1.228-0.867,1.494-1.578
				c0.759-2.025,0.541-4.261,0.618-6.422c0.077-2.161,0.587-4.525,2.314-5.826c1.461-1.102,3.429-1.171,5.259-1.195
				c2.598-0.034,6.751,1.406,6.904-2.384c0.114-2.837-1.61-6.501-4.522-7.302c-1.578-0.434-3.533,0.635-5.149,0.844
				C226.571,231.862,223.999,232.012,221.532,232.741z"/>
		</g>
		<g>
			<path style="fill:#C56E53;" d="M281.756,259.958c-1.877,1.426-4.955,1.634-7.155,2.292c-3.414,1.022-6.824,2.055-10.234,3.088
				c-14.049,4.257-27.929,8.355-42.295,11.549c-3.024-14.486-6.848-29.458-7.671-44.161c-0.676-12.068-4.039-25.503-12.132-34.93
				c-3.11-3.623-8.272-5.78-13.027-5.25c-12.503,1.394-20.927,13.473-19.611,25.424c1.595,14.476,3.543,27.887,7.135,41.935
				c1.654,6.471,3.309,12.943,4.963,19.414c2.672,10.454,1.932,28.248,16.55,27.96c5.109-0.101,9.918-2.281,14.559-4.421
				c15.159-6.99,30.318-13.98,45.477-20.97c6.607-3.047,13.972-4.526,20.896-7.009c0.909-0.326,1.907-0.653,2.818-0.333
				c0.737,0.259,1.266,0.893,1.883,1.373c2.49,1.937,6.065,1.21,9.081,0.285c5.141-1.576,21.11-4.547,17.713-11.859
				c-2.576-5.547-11.967-4.162-16.659-7.491c-0.542-0.385-1.077-0.812-1.411-1.386c-1.43-2.46,0.465-4.814,2.006-6.543
				c0.789-0.885,2.755-3.723,1.816-5.017c-0.807-1.112-3.131,1.596-4.007,2.251c-1.517,1.136-3.095,2.19-4.726,3.156
				c-1.344,0.797-2.798,1.61-3.519,2.996c-0.906,1.743-0.401,3.909-1.052,5.762C282.871,258.877,282.38,259.485,281.756,259.958z"/>
			<path style="fill:#812024;" d="M162.049,202.867c-0.252,9.558,3.973,36.192,10.207,50.533c0,0,23.5,12.145,46.75-5.75
				c0,0-5.181-55.614-13.111-64.761c-5.397-6.226-13.926-14.742-23.222-11.13c-0.623,0.242-1.362,0.58-2.184,1.007
				C169.3,178.576,162.381,190.263,162.049,202.867z"/>
		</g>
	</g>
	<g>
		<path style="fill:#3A3169;" d="M427.377,314.344H72.623c-6.419,0-11.623,5.204-11.623,11.623v88.556
			c0,6.419,5.204,11.623,11.623,11.623h354.754c6.419,0,11.623-5.204,11.623-11.623v-88.556
			C439,319.548,433.796,314.344,427.377,314.344z"/>
		<g>
			<g>
				<path style="fill:#F58700;" d="M288.575,303.159c2.25-2.193,1.009-6.014-2.101-6.466l-21.814-3.17
					c-0.651-0.095-1.214-0.504-1.506-1.094l-9.755-19.767c-1.391-2.818-5.408-2.818-6.799,0l-9.755,19.767
					c-0.291,0.59-0.854,0.999-1.506,1.094l-21.814,3.17c-3.109,0.452-4.351,4.273-2.101,6.466l15.784,15.386
					c0.471,0.46,0.686,1.121,0.575,1.77l-3.726,21.725c-0.531,3.097,2.719,5.458,5.5,3.996l19.511-10.257
					c0.583-0.306,1.279-0.306,1.861,0l19.511,10.257c2.781,1.462,6.031-0.9,5.5-3.996l-3.726-21.725
					c-0.111-0.649,0.104-1.311,0.575-1.77L288.575,303.159z"/>
				<path style="fill:#FFAC0E;" d="M264.66,293.523c-0.651-0.095-1.214-0.504-1.506-1.094l-9.755-19.766
					c-1.391-2.818-5.408-2.818-6.799,0l-9.755,19.766c-0.291,0.59-0.854,0.999-1.506,1.094l-21.814,3.17
					c-3.109,0.452-4.351,4.273-2.101,6.466l15.468,15.078c5.669-0.637,11.592-1.665,17.64-3.114
					c17.384-4.164,32.309-10.941,42.12-18.404L264.66,293.523z"/>
			</g>
			<g>
				<path style="fill:#F58700;" d="M342.332,314.573c1.657-1.615,0.743-4.43-1.547-4.762l-16.066-2.335
					c-0.48-0.07-0.894-0.371-1.109-0.806l-7.185-14.558c-1.024-2.075-3.983-2.075-5.007,0l-7.185,14.558
					c-0.214,0.435-0.629,0.736-1.109,0.806l-16.066,2.335c-2.29,0.333-3.204,3.147-1.547,4.762l11.625,11.332
					c0.347,0.338,0.506,0.826,0.424,1.304l-2.744,16.001c-0.391,2.281,2.003,4.02,4.051,2.943l14.37-7.555
					c0.429-0.226,0.942-0.226,1.371,0l14.37,7.555c2.048,1.077,4.442-0.663,4.051-2.943l-2.744-16.001
					c-0.082-0.478,0.077-0.965,0.424-1.304L342.332,314.573z"/>
				<path style="fill:#FFAC0E;" d="M324.719,307.477c-0.48-0.07-0.894-0.371-1.109-0.806l-7.185-14.558
					c-1.024-2.075-3.983-2.075-5.007,0l-7.185,14.558c-0.214,0.435-0.629,0.736-1.109,0.806l-16.066,2.335
					c-2.29,0.333-3.204,3.147-1.547,4.762l11.393,11.105c4.175-0.47,8.538-1.226,12.992-2.293
					c12.803-3.067,23.796-8.058,31.021-13.555L324.719,307.477z"/>
			</g>
			<g>
				<path style="fill:#F58700;" d="M406.253,314.573c1.657-1.615,0.743-4.43-1.547-4.762l-16.066-2.335
					c-0.48-0.07-0.894-0.371-1.109-0.806l-7.185-14.558c-1.024-2.075-3.983-2.075-5.008,0l-7.185,14.558
					c-0.215,0.435-0.629,0.736-1.109,0.806l-16.066,2.335c-2.29,0.333-3.204,3.147-1.547,4.762l11.625,11.332
					c0.347,0.338,0.506,0.826,0.424,1.304l-2.744,16.001c-0.391,2.281,2.003,4.02,4.051,2.943l14.37-7.555
					c0.429-0.226,0.942-0.226,1.371,0l14.37,7.555c2.048,1.077,4.442-0.663,4.051-2.943l-2.744-16.001
					c-0.082-0.478,0.076-0.965,0.424-1.304L406.253,314.573z"/>
				<path style="fill:#FFAC0E;" d="M388.64,307.477c-0.48-0.07-0.894-0.371-1.109-0.806l-7.185-14.558
					c-1.024-2.075-3.983-2.075-5.008,0l-7.185,14.558c-0.215,0.435-0.629,0.736-1.109,0.806l-16.066,2.335
					c-2.29,0.333-3.204,3.147-1.547,4.762l11.393,11.105c4.175-0.47,8.538-1.226,12.992-2.293
					c12.803-3.067,23.795-8.058,31.021-13.555L388.64,307.477z"/>
			</g>
			<g>
				<path style="fill:#F58700;" d="M150.569,314.573c1.657-1.615,0.743-4.43-1.547-4.762l-16.066-2.335
					c-0.48-0.07-0.894-0.371-1.109-0.806l-7.185-14.558c-1.024-2.075-3.983-2.075-5.007,0l-7.185,14.558
					c-0.215,0.435-0.629,0.736-1.109,0.806l-16.066,2.335c-2.29,0.333-3.204,3.147-1.547,4.762l11.625,11.332
					c0.347,0.338,0.506,0.826,0.424,1.304l-2.744,16.001c-0.391,2.281,2.003,4.02,4.051,2.943l14.37-7.555
					c0.429-0.226,0.942-0.226,1.371,0l14.37,7.555c2.048,1.077,4.442-0.663,4.051-2.943l-2.744-16.001
					c-0.082-0.478,0.076-0.965,0.424-1.304L150.569,314.573z"/>
				<path style="fill:#FFAC0E;" d="M132.955,307.477c-0.48-0.07-0.894-0.371-1.109-0.806l-7.185-14.558
					c-1.024-2.075-3.983-2.075-5.007,0l-7.185,14.558c-0.215,0.435-0.629,0.736-1.109,0.806l-16.066,2.335
					c-2.29,0.333-3.204,3.147-1.547,4.762l11.393,11.105c4.175-0.47,8.538-1.226,12.992-2.293
					c12.803-3.067,23.796-8.058,31.021-13.555L132.955,307.477z"/>
			</g>
			<g>
				<path style="fill:#F58700;" d="M214.49,314.573c1.657-1.615,0.743-4.43-1.547-4.762l-16.066-2.335
					c-0.48-0.07-0.894-0.371-1.109-0.806l-7.185-14.558c-1.024-2.075-3.983-2.075-5.007,0l-7.185,14.558
					c-0.215,0.435-0.629,0.736-1.109,0.806l-16.066,2.335c-2.29,0.333-3.204,3.147-1.547,4.762l11.625,11.332
					c0.347,0.338,0.506,0.826,0.424,1.304l-2.744,16.001c-0.391,2.281,2.003,4.02,4.051,2.943l14.37-7.555
					c0.429-0.226,0.942-0.226,1.371,0l14.37,7.555c2.048,1.077,4.442-0.663,4.051-2.943l-2.744-16.001
					c-0.082-0.478,0.077-0.965,0.424-1.304L214.49,314.573z"/>
				<path style="fill:#FFAC0E;" d="M196.876,307.477c-0.48-0.07-0.894-0.371-1.109-0.806l-7.185-14.558
					c-1.024-2.075-3.983-2.075-5.007,0l-7.185,14.558c-0.215,0.435-0.629,0.736-1.109,0.806l-16.066,2.335
					c-2.29,0.333-3.204,3.147-1.547,4.762l11.393,11.105c4.175-0.47,8.537-1.226,12.992-2.293
					c12.803-3.067,23.796-8.058,31.021-13.555L196.876,307.477z"/>
			</g>
		</g>
		<path style="fill:#FFFFFF;" d="M418.148,356.188H81.852c-2.317,0-4.196,1.878-4.196,4.196v46.234c0,2.317,1.878,4.196,4.196,4.196
			h336.295c2.317,0,4.196-1.878,4.196-4.196v-46.234C422.343,358.067,420.465,356.188,418.148,356.188z"/>
		<g>
			<g>
				
					<ellipse transform="matrix(0.7071 -0.7071 0.7071 0.7071 -235.5533 198.3255)" style="fill:#B5FDFF;" cx="121.623" cy="383.501" rx="22.71" ry="22.71"/>
				<path style="fill:#71AEDE;" d="M133.016,393.672l-7.775-5.793c3.879-1.464,6.644-5.201,6.644-9.593
					c0-5.667-4.594-10.262-10.262-10.262s-10.262,4.594-10.262,10.262c0,4.392,2.764,8.129,6.644,9.593l-7.774,5.793
					c-0.929,0.692-1.477,1.783-1.477,2.942v5.597c3.658,2.521,8.09,4.001,12.869,4.001c4.779,0,9.211-1.479,12.869-4.001v-5.597
					C134.493,395.455,133.945,394.364,133.016,393.672z"/>
			</g>
			<g>
				<path style="fill:#6985BD;" d="M398.136,374.287H160.848c-1.63,0-2.951,1.321-2.951,2.951c0,1.63,1.321,2.951,2.951,2.951
					h237.288c1.63,0,2.951-1.321,2.951-2.951C401.087,375.608,399.766,374.287,398.136,374.287z"/>
				<path style="fill:#6985BD;" d="M398.136,386.812H160.848c-1.63,0-2.951,1.321-2.951,2.951c0,1.63,1.321,2.951,2.951,2.951
					h237.288c1.63,0,2.951-1.321,2.951-2.951C401.087,388.134,399.766,386.812,398.136,386.812z"/>
			</g>
		</g>
	</g>
	<g>
		<path style="fill:#7685F0;" d="M401.439,254.834c-0.783-0.973-1.965-1.419-3.121-1.632c-2.933-0.54-5.979,0.172-8.893-0.48
			c-0.557-0.124-1.167-0.352-1.423-0.918c-0.191-0.422-0.133-0.924-0.082-1.394c0.233-2.131,0.246-4.291,0.036-6.423
			c-0.17-1.731-0.551-3.574-1.722-4.72c-1.171-1.146-3.344-1.091-4.016,0.483c-0.5,1.173,0.008,2.542,0.031,3.84
			c0.052,2.835-2.142,4.978-3.744,7.184c-0.865,1.191-1.592,2.505-2.164,3.898c-0.455,1.109-0.459,2.725-1.501,3.359
			c-0.135,0.082-0.275,0.148-0.419,0.204l0-0.017c0.011-0.948-0.809-1.727-1.831-1.739l-6.762-0.081
			c-1.023-0.012-1.861,0.746-1.872,1.694l-0.197,16.461c-0.011,0.948,0.809,1.726,1.831,1.739l6.762,0.081
			c1.023,0.012,1.861-0.746,1.872-1.695l0.001-0.123c1.664,0.278,3.341,0.484,5.035,0.642c3.832,0.357,7.682,0.479,11.528,0.364
			c2.039-0.061,4.154-0.211,5.953-1.289c0.356-0.213,0.705-0.471,0.931-0.844c0.567-0.934,0.19-2.19-0.202-3.228
			c0.883-0.146,1.679-0.834,2.026-1.753c0.348-0.918,0.234-2.034-0.289-2.84c0.592-0.454,1.178-0.963,1.538-1.657
			c0.36-0.694,0.448-1.617,0.046-2.279c-0.175-0.287-0.434-0.518-0.534-0.847c-0.148-0.484,0.101-1.015,0.426-1.376
			c0.325-0.362,0.731-0.63,1.023-1.025C402.458,257.414,402.221,255.807,401.439,254.834z"/>
		<path style="fill:#7685F0;" d="M145.613,93.968c-0.758-0.941-1.902-1.374-3.021-1.58c-2.839-0.523-5.788,0.166-8.609-0.464
			c-0.539-0.121-1.13-0.341-1.377-0.889c-0.185-0.408-0.129-0.895-0.079-1.35c0.226-2.063,0.238-4.154,0.035-6.218
			c-0.165-1.675-0.533-3.46-1.667-4.57c-1.134-1.11-3.238-1.057-3.888,0.467c-0.484,1.136,0.007,2.461,0.031,3.717
			c0.05,2.745-2.074,4.82-3.625,6.955c-0.837,1.153-1.541,2.425-2.095,3.773c-0.441,1.074-0.445,2.638-1.453,3.252
			c-0.13,0.079-0.266,0.144-0.405,0.198l0-0.017c0.011-0.918-0.783-1.671-1.773-1.683l-6.546-0.078
			c-0.99-0.012-1.802,0.722-1.813,1.64l-0.191,15.936c-0.011,0.918,0.783,1.672,1.773,1.683l6.546,0.078
			c0.99,0.012,1.802-0.723,1.813-1.64l0.001-0.119c1.611,0.269,3.234,0.468,4.875,0.621c3.71,0.346,7.437,0.464,11.16,0.353
			c1.974-0.059,4.021-0.205,5.763-1.248c0.344-0.206,0.682-0.456,0.901-0.817c0.549-0.905,0.184-2.12-0.195-3.125
			c0.854-0.141,1.625-0.808,1.962-1.697c0.336-0.889,0.226-1.97-0.28-2.749c0.573-0.44,1.141-0.932,1.489-1.604
			c0.348-0.672,0.434-1.565,0.044-2.206c-0.169-0.278-0.42-0.502-0.517-0.82c-0.143-0.469,0.098-0.982,0.413-1.333
			c0.314-0.35,0.707-0.61,0.99-0.992C146.6,96.465,146.371,94.91,145.613,93.968z"/>
		<path style="fill:#7685F0;" d="M130.118,253.462c-0.59-0.733-1.481-1.07-2.352-1.23c-2.21-0.407-4.506,0.13-6.703-0.361
			c-0.42-0.094-0.879-0.265-1.072-0.692c-0.144-0.318-0.1-0.697-0.062-1.051c0.176-1.606,0.185-3.234,0.027-4.841
			c-0.128-1.305-0.415-2.694-1.298-3.558c-0.883-0.864-2.521-0.823-3.027,0.364c-0.377,0.884,0.006,1.916,0.024,2.894
			c0.039,2.137-1.615,3.752-2.822,5.415c-0.652,0.897-1.2,1.888-1.631,2.938c-0.343,0.836-0.346,2.054-1.131,2.532
			c-0.102,0.062-0.207,0.112-0.316,0.154l0-0.013c0.008-0.715-0.61-1.301-1.38-1.311l-5.097-0.061
			c-0.771-0.009-1.403,0.563-1.411,1.277l-0.149,12.407c-0.009,0.715,0.609,1.301,1.38,1.311l5.097,0.061
			c0.771,0.009,1.403-0.563,1.411-1.277l0.001-0.092c1.254,0.209,2.518,0.365,3.795,0.484c2.888,0.269,5.791,0.361,8.689,0.274
			c1.537-0.046,3.131-0.159,4.487-0.972c0.268-0.161,0.531-0.355,0.702-0.636c0.428-0.704,0.143-1.651-0.152-2.433
			c0.665-0.11,1.266-0.629,1.527-1.321c0.262-0.692,0.176-1.533-0.218-2.14c0.446-0.342,0.888-0.726,1.159-1.249
			c0.271-0.523,0.338-1.219,0.034-1.718c-0.132-0.216-0.327-0.391-0.402-0.639c-0.111-0.365,0.077-0.765,0.321-1.038
			c0.245-0.273,0.551-0.475,0.771-0.773C130.887,255.406,130.708,254.195,130.118,253.462z"/>
		<path style="fill:#7685F0;" d="M311.495,84.823c-0.59-0.733-1.481-1.07-2.352-1.23c-2.21-0.407-4.506,0.13-6.703-0.361
			c-0.42-0.094-0.879-0.265-1.072-0.692c-0.144-0.318-0.1-0.697-0.062-1.051c0.176-1.606,0.185-3.234,0.027-4.841
			c-0.128-1.305-0.415-2.694-1.298-3.558c-0.883-0.864-2.521-0.823-3.027,0.364c-0.377,0.884,0.006,1.916,0.024,2.894
			c0.039,2.137-1.615,3.752-2.822,5.415c-0.652,0.897-1.2,1.888-1.631,2.938c-0.343,0.836-0.346,2.054-1.131,2.532
			c-0.101,0.062-0.207,0.112-0.315,0.154l0-0.013c0.009-0.715-0.609-1.301-1.38-1.311l-5.097-0.061
			c-0.771-0.009-1.403,0.563-1.411,1.277l-0.149,12.407c-0.009,0.715,0.609,1.301,1.38,1.311l5.097,0.061
			c0.771,0.009,1.403-0.563,1.411-1.277l0.001-0.092c1.254,0.209,2.518,0.365,3.795,0.484c2.888,0.27,5.791,0.361,8.689,0.274
			c1.537-0.046,3.131-0.159,4.487-0.972c0.268-0.161,0.531-0.355,0.702-0.636c0.428-0.704,0.143-1.65-0.152-2.433
			c0.665-0.11,1.266-0.629,1.527-1.321s0.176-1.533-0.218-2.14c0.446-0.342,0.888-0.726,1.159-1.249
			c0.271-0.523,0.338-1.219,0.034-1.718c-0.132-0.216-0.327-0.391-0.402-0.639c-0.111-0.365,0.077-0.765,0.321-1.037
			c0.245-0.273,0.551-0.475,0.771-0.773C312.263,86.767,312.085,85.555,311.495,84.823z"/>
	</g>
</g>
</svg>
