<?xml version="1.0" encoding="utf-8"?>
<!-- Generator: Adobe Illustrator 27.5.0, SVG Export Plug-In . SVG Version: 6.00 Build 0)  -->
<svg version="1.1" xmlns="http://www.w3.org/2000/svg" xmlns:xlink="http://www.w3.org/1999/xlink" x="0px" y="0px"
	 viewBox="0 0 500 500" style="enable-background:new 0 0 500 500;" xml:space="preserve">
<g id="BACKGROUND">
	<g>
		<rect style="opacity:0.8;fill:#FFFFFF;" width="500" height="500"/>
	</g>
</g>
<g id="OBJECTS">
	<g>
		<g>
			<rect y="429.972" style="opacity:0.8;fill:#E7E5D3;" width="500" height="70.028"/>
		</g>
		<g>
			<g>
				<path style="fill:#D1D3D4;" d="M354.313,429.685c0,1.586-2.914,2.883-6.475,2.883H59.525c-3.563,0-6.477-1.297-6.477-2.883
					c0-1.586,2.914-2.883,6.477-2.883h288.313C351.398,426.803,354.313,428.1,354.313,429.685z"/>
				<g>
					<g>
						<g>
							<g>
								<path style="fill:#EE3524;" d="M342.31,88.02c-0.002-4.4-3.602-7.999-8.003-7.997L61.078,80.114
									c-4.4,0.001-7.999,3.603-7.997,8.002l0.117,333.905c0.002,4.4,3.603,7.998,8.003,7.996l273.229-0.092
									c4.4-0.002,7.999-3.602,7.997-8.002L342.31,88.02z"/>
							</g>
							<g>
								<path style="fill:#8C2004;" d="M283.544,91.849c0.002,4.4-3.597,8.001-7.997,8.003l-141.594,0.05
									c-4.4,0.001-8.001-3.597-8.003-7.997l-0.006-18.187c-0.002-4.4,3.597-8.001,7.997-8.003l141.594-0.05
									c4.4-0.001,8.001,3.597,8.003,7.997L283.544,91.849z"/>
								
									<text transform="matrix(1 -3.500000e-04 3.500000e-04 1 164.3137 90.5917)" style="fill:#FFFFFF; font-family:'Montserrat-ExtraBold'; font-size:25.9328px;">FOOD</text>
							</g>
						</g>
						<g>
							<g>
								<rect x="75.709" y="113.131" style="fill:#FFEEBB;" width="74.187" height="81.522"/>
								<rect x="160.571" y="113.101" style="fill:#FFEEBB;" width="74.186" height="81.522"/>
								<rect x="245.435" y="113.071" style="fill:#FFEEBB;" width="74.185" height="81.522"/>
							</g>
							<g>
								<g>
									<g>
										<path style="fill:#E2E3E4;" d="M133.996,153.322c-1.17-4.913-7.564-3.12-7.564-3.12c0,7.799-4.211,14.505-4.211,14.505
											C128.693,164.864,135.166,158.235,133.996,153.322z M125.809,160.965c1.48-1.774,1.949-7.487,1.949-7.487
											s3.432-1.092,3.51,2.106C131.359,159.338,125.809,160.965,125.809,160.965z"/>
										<path style="fill:#FFFFFF;" d="M132.555,170.009c0,3.068-9.48,5.556-21.174,5.556c-11.693,0-21.174-2.488-21.174-5.556
											c0-3.07,9.48-5.557,21.174-5.557C123.074,164.453,132.555,166.939,132.555,170.009z"/>
										<path style="fill:#D2D2D3;" d="M125.418,169.306c0,1.727-6.285,3.126-14.037,3.126c-7.752,0-14.037-1.399-14.037-3.126
											c0-1.726,6.285-3.125,14.037-3.125C119.133,166.181,125.418,167.581,125.418,169.306z"/>
										<path style="fill:#FFFFFF;" d="M124.131,145.68c-2.924-1.287-8.461-2.165-13.219-1.924
											c-5.225-0.163-10.293,0.637-13.217,1.924c-2.926,1.286-4.564,3.626-0.938,15.089
											c3.627,11.464,14.154,10.412,14.154,10.412s10.529,1.052,14.154-10.412C128.693,149.307,127.057,146.966,124.131,145.68z"
											/>
										<path style="fill:#663700;" d="M125.184,148.019c0,1.379-6.197,2.496-13.842,2.496S97.5,149.398,97.5,148.019
											c0-1.379,6.197-2.495,13.842-2.495S125.184,146.64,125.184,148.019z"/>
										<path style="fill:#E2E3E4;" d="M97.031,153.322c0,0,0.936-1.326,1.949-0.39c1.014,0.936,0.547,11.151,5.693,15.44
											C104.674,168.373,96.877,164.084,97.031,153.322z"/>
										<g>
											<path style="fill:#663700;" d="M122.404,128.626c0,0-5.838-1.406-8.529,1.552c-2.691,2.959-4.805,7.43-7.154,6.652
												c0,0,3.717,1.963,6.793-1.294C116.59,132.279,118.346,128.51,122.404,128.626z"/>
											<path style="fill:#AA710A;" d="M123.473,134.771c0,0-4.275-1.03-6.246,1.136c-1.971,2.167-3.518,5.441-5.238,4.871
												c0,0,2.721,1.437,4.973-0.947C119.213,137.447,120.5,134.686,123.473,134.771z"/>
										</g>
									</g>
									<path style="fill:#AA710A;" d="M111.342,150.515c5.498,0,10.232-0.579,12.467-1.416c-1.41-1.082-6.449-1.883-12.467-1.883
										c-6.018,0-11.057,0.801-12.467,1.883C101.109,149.936,105.844,150.515,111.342,150.515z"/>
									<path style="fill:#E2E3E4;" d="M133.996,153.322c-0.934-3.922-5.193-3.57-6.875-3.269c-0.18-2.649-1.393-3.671-2.99-4.373
										c-2.574-1.133-7.172-1.948-11.48-1.962c0.002,0.002,7.92,5.618,6.27,12.547c-1.65,6.93-4.535,14.653-4.535,14.653
										s7.193,0.377,4.873,4.248c7.791-0.821,13.297-2.82,13.297-5.157c0-1.957-3.854-3.674-9.676-4.665
										c0.15-0.217,0.295-0.443,0.436-0.677C129.4,164.119,135.102,157.958,133.996,153.322z M127.758,153.478
										c0,0,3.432-1.092,3.51,2.106c0.092,3.754-5.459,5.381-5.459,5.381C127.289,159.19,127.758,153.478,127.758,153.478z"/>
								</g>
								<g>
									<g>
										<g>
											<path style="fill:#F2862C;" d="M261.381,158.159c0-9.794,9.016-17.734,20.141-17.734c11.121,0,20.141,7.94,20.141,17.734
												H261.381z"/>
											<path style="fill:#F1862B;" d="M301.283,166.128c0,1.749-1.43,3.179-3.178,3.179h-33.168
												c-1.748,0-3.178-1.43-3.178-3.179v-3.607c0-1.748,1.43-3.178,3.178-3.178h33.168c1.748,0,3.178,1.43,3.178,3.178V166.128
												z"/>
											<path style="fill:#754200;" d="M303.631,160.441c0,1.253-1.025,2.278-2.279,2.278h-39.66
												c-1.254,0-2.279-1.026-2.279-2.278v-0.003c0-1.252,1.025-2.278,2.279-2.278h39.66c1.254,0,2.279,1.026,2.279,2.278
												V160.441z"/>
											<path style="fill:#ED1849;" d="M261.381,158.159h40.281c0-1.35-0.178-2.664-0.502-3.928h-39.277
												C261.557,155.495,261.381,156.809,261.381,158.159z"/>
											<path style="fill:#FFE14F;" d="M261.775,156.664c1.978,0,1.978-1.797,3.957-1.797c1.978,0,1.978,1.797,3.957,1.797
												c1.977,0,1.977-1.797,3.953-1.797c1.977,0,1.977,1.797,3.949,1.797c1.978,0,1.978-1.797,3.955-1.797
												c1.975,0,1.975,1.797,3.951,1.797c1.975,0,1.975-1.797,3.951-1.797c1.975,0,1.975,1.797,3.951,1.797
												c1.975,0,1.975-1.797,3.949-1.797c1.975,0,1.975,1.797,3.949,1.797c0,0,0.314-0.452,0.363-1.791
												c0.051-1.34-0.363-1.87-0.363-1.87c-1.975,0-1.975-1.797-3.949-1.797c-1.975,0-1.975,1.797-3.949,1.797
												c-1.977,0-1.977-1.797-3.951-1.797c-1.977,0-1.977,1.797-3.951,1.797c-1.977,0-1.977-1.797-3.951-1.797
												c-1.977,0-1.977,1.797-3.955,1.797c-1.973,0-1.973-1.797-3.949-1.797c-1.977,0-1.977,1.797-3.953,1.797
												c-1.979,0-1.979-1.797-3.957-1.797c-1.979,0-1.979,1.797-3.957,1.797c0,0-0.51,1.69-0.379,2.37
												C261.525,156.053,261.775,156.664,261.775,156.664z"/>
											<path style="fill:#6CB33F;" d="M261.775,164.966c1.978,0,1.978-1.797,3.957-1.797c1.978,0,1.978,1.797,3.957,1.797
												c1.977,0,1.977-1.797,3.953-1.797c1.977,0,1.977,1.797,3.949,1.797c1.978,0,1.978-1.797,3.955-1.797
												c1.975,0,1.975,1.797,3.951,1.797c1.975,0,1.975-1.797,3.951-1.797c1.975,0,1.975,1.797,3.951,1.797
												c1.975,0,1.975-1.797,3.949-1.797c1.975,0,1.975,1.797,3.949,1.797c0,0,0.314-0.453,0.363-1.792
												c0.051-1.339-0.363-1.87-0.363-1.87c-1.975,0-1.975-1.797-3.949-1.797c-1.975,0-1.975,1.797-3.949,1.797
												c-1.977,0-1.977-1.797-3.951-1.797c-1.977,0-1.977,1.797-3.951,1.797c-1.977,0-1.977-1.797-3.951-1.797
												c-1.977,0-1.977,1.797-3.955,1.797c-1.973,0-1.973-1.797-3.949-1.797c-1.977,0-1.977,1.797-3.953,1.797
												c-1.979,0-1.979-1.797-3.957-1.797c-1.979,0-1.979,1.797-3.957,1.797c0,0-0.51,1.69-0.379,2.371
												C261.525,164.356,261.775,164.966,261.775,164.966z"/>
											<g>
												<path style="fill:#FDBB30;" d="M271.514,147.772c0,0.35-0.68,0.634-1.52,0.634c-0.84,0-1.52-0.284-1.52-0.634
													c0-0.35,0.68-0.633,1.52-0.633C270.834,147.138,271.514,147.421,271.514,147.772z"/>
												<path style="fill:#FDBB30;" d="M277.342,145.745c0,0.351-0.682,0.634-1.522,0.634c-0.838,0-1.52-0.284-1.52-0.634
													c0-0.35,0.682-0.633,1.52-0.633C276.66,145.111,277.342,145.395,277.342,145.745z"/>
												<path style="fill:#FDBB30;" d="M283.168,147.772c0,0.35-0.682,0.634-1.52,0.634c-0.84,0-1.521-0.284-1.521-0.634
													c0-0.35,0.682-0.633,1.521-0.633C282.486,147.138,283.168,147.421,283.168,147.772z"/>
												<path style="fill:#FDBB30;" d="M294.568,147.772c0,0.35-0.68,0.634-1.52,0.634c-0.84,0-1.522-0.284-1.522-0.634
													c0-0.35,0.682-0.633,1.522-0.633C293.889,147.138,294.568,147.421,294.568,147.772z"/>
												<path style="fill:#FDBB30;" d="M288.996,145.745c0,0.351-0.682,0.634-1.522,0.634c-0.84,0-1.52-0.284-1.52-0.634
													c0-0.35,0.68-0.633,1.52-0.633C288.314,145.111,288.996,145.395,288.996,145.745z"/>
											</g>
										</g>
									</g>
									<path style="fill:#E2E3E4;" d="M301.352,157.869h0.31c0-0.329-0.012-0.655-0.033-0.979
										c-0.002-0.054-0.01-0.106-0.012-0.159c-0.021-0.28-0.047-0.558-0.082-0.834c-0.004-0.031-0.01-0.062-0.014-0.092
										c0-0.012-0.002-0.023-0.006-0.034c0.068-0.279,0.127-0.664,0.146-1.189c0.051-1.339-0.363-1.87-0.363-1.87
										c-0.193,0-0.363-0.021-0.522-0.052c-2.527-7.252-10.193-12.525-19.256-12.525c-0.018,0-0.037,0.002-0.055,0.002
										c0,0,12.986,2.207,10.529,28.88h6.109c1.748,0,3.178-1.43,3.178-3.178v-1.163c0.006,0.001,0.01,0.001,0.016,0.001
										c0,0,0.314-0.453,0.363-1.792c0.008-0.177,0.004-0.337-0.002-0.486c1.107-0.153,1.971-1.099,1.971-2.247v-0.003
										C303.631,158.895,302.605,157.869,301.352,157.869z"/>
								</g>
								<g>
									<g>
										<path style="fill:#FFE14F;" d="M212.633,137.126c-0.041,0-0.08,0.001-0.119,0.003c0-0.001,0-0.002,0-0.003
											c0-2.301-1.865-4.165-4.164-4.165c-0.488,0-0.955,0.088-1.389,0.242c-0.621-2.199-2.641-3.811-5.039-3.811
											c-0.143,0-0.285,0.008-0.424,0.019c-0.725-2.023-2.658-3.469-4.93-3.469c-2.613,0-4.777,1.913-5.172,4.414
											c-0.326-0.083-0.666-0.13-1.016-0.13c-1.889,0-3.48,1.256-3.992,2.979c-0.363-0.08-0.738-0.123-1.127-0.123
											c-2.891,0-5.234,2.344-5.234,5.235c0,0.499,0.07,0.981,0.203,1.438c-1.453,0.651-2.463,2.105-2.463,3.797
											c0,2.301,1.863,4.165,4.164,4.165c0.76,0,1.471-0.208,2.086-0.563c2.133,3.13,7.055,5.323,12.789,5.323
											c5.955,0,11.035-2.366,13.023-5.692c0.811,0.514,1.771,0.813,2.803,0.813c2.891,0,5.234-2.344,5.234-5.235
											C217.867,139.469,215.523,137.126,212.633,137.126z"/>
										<path style="fill:#FFD200;" d="M184.65,139.737c0.035,0,0.07,0.003,0.104,0.003c0,0,0-0.002,0-0.003
											c0-2.044,1.658-3.701,3.703-3.701c0.434,0,0.848,0.078,1.232,0.214c0.553-1.954,2.348-3.387,4.479-3.387
											c0.127,0,0.254,0.006,0.379,0.016c0.643-1.798,2.361-3.083,4.381-3.083c2.32,0,4.246,1.699,4.596,3.922
											c0.289-0.073,0.592-0.115,0.904-0.115c1.678,0,3.092,1.117,3.547,2.647c0.322-0.071,0.656-0.108,1.002-0.108
											c2.568,0,4.652,2.084,4.652,4.653c0,0.444-0.063,0.872-0.178,1.277c1.287,0.579,2.188,1.872,2.188,3.376
											c0,2.044-1.658,3.701-3.701,3.701c-0.678,0-1.309-0.183-1.853-0.5c-1.899,2.783-6.274,4.731-11.367,4.731
											c-5.295,0-9.809-2.104-11.576-5.06c-0.721,0.457-1.574,0.723-2.49,0.723c-2.57,0-4.654-2.084-4.654-4.653
											C179.996,141.821,182.08,139.737,184.65,139.737z"/>
										<polygon style="fill:#FFFFFF;" points="197.935,144.742 176.814,144.742 184.92,180.44 197.935,180.44 210.951,180.44 
											219.059,144.742 										"/>
										<g>
											<polygon style="fill:#F16477;" points="193.285,180.44 189.904,180.44 186.096,144.742 191.094,144.742 											"/>
											<polygon style="fill:#F16477;" points="199.568,180.44 196.185,180.44 195.377,144.742 200.375,144.742 											"/>
											<polygon style="fill:#F16477;" points="205.85,180.44 202.469,180.44 204.66,144.742 209.656,144.742 											"/>
										</g>
										<path style="fill:#50C8E8;" d="M206.217,161.65c0,4.666-3.781,8.448-8.447,8.448s-8.449-3.782-8.449-8.448
											s3.783-8.449,8.449-8.449S206.217,156.984,206.217,161.65z"/>
									</g>
									<path style="fill:#E2E3E4;" d="M201.328,180.44h1.141h3.381h5.102l8.107-35.698h-1.762c0.363-0.714,0.57-1.523,0.57-2.38
										c0-2.893-2.344-5.236-5.234-5.236c-0.041,0-0.08,0.001-0.119,0.003c0-0.001,0-0.002,0-0.003
										c0-2.301-1.865-4.165-4.164-4.165c-0.488,0-0.955,0.088-1.389,0.242c-0.621-2.199-2.641-3.811-5.039-3.811
										c-0.143,0-0.285,0.008-0.424,0.019c-0.725-2.023-2.658-3.469-4.93-3.469c0,0,3.529,1.284,2.359,3.856
										c0,0,6.684,11.375,4.543,14.946L201.328,180.44z"/>
								</g>
							</g>
						</g>
					</g>
					<g>
						<g>
							<g>
								<g>
									<path style="fill:#FBB480;" d="M128.42,251.074c0,0-5.438,15.871-6.318,19.399c-0.883,3.525-0.443,4.701,2.057,7.496
										c2.5,2.789,23.648,22.08,23.648,22.08l4.568-8.119c0,0-18.131-16.547-17.563-21.44c0.268-2.295,4.043-13.98,4.043-13.98
										L128.42,251.074z"/>
									<path style="fill:#FBB480;" d="M230.68,249.286c0,0-20.148,16.574-22.646,17.625c-2.496,1.049-4.98-2.172-4.98-2.172
										c-1.051-1.908-14.23-18.956-14.23-18.956l8.963-5.732c0,0,8.555,11.35,9.648,12.442c1.094,1.094,17.314-8.982,17.314-8.982
										s2.352-4.748,2.654-6.711c0.623-4.059,2.967-1.249,2.967-0.313c0,0.937-0.471,1.873-0.625,2.498
										c-0.158,0.624,7.646-8.741,9.053-8.117c1.404,0.624-0.781,4.839-1.873,6.399c-1.094,1.561,0.467,1.249,0.936,2.654
										c0.186,0.553,4.059,4.682-1.561,9.365C234.668,250.645,231.771,250.535,230.68,249.286z"/>
								</g>
								<g>
									<path style="fill:#EEE0D5;" d="M153.111,217.541c0,0-11.295,5.295-15.373,7.389c-4.08,2.094-7.496,6.944-8.598,12.676
										c-1.102,5.731-3.467,14.234-3.467,14.234s10.727,5.953,14.922,6.867l5.514-14.895c0,0,0.48,21.079,0.678,29.004
										c0.184,7.301,1.332,26.102,1.332,26.102l41.75-1.82c0,0-1.639-23.184-2.002-31.76c-0.365-8.574-1.752-19.906-1.752-19.906
										l2.691,4.034l13.32-9.67c0,0-10.447-13.079-13.084-16.217c-3.832-4.561-3.832-4.561-8.029-4.927
										c-4.197-0.365-15.041-1.319-15.041-1.319L153.111,217.541z"/>
									<path style="opacity:0.4;fill:#EEE0D5;" d="M192.988,246.43L192.988,246.43c0,0-2.355,0.996-3.379,0.996
										c-1.021,0-3.75-4.774-3.75-4.774l-0.795,16.368l-34.666-2.955c0,0-2.16-8.071-2.615-10.231
										c-0.455-2.16-0.908-7.161-0.908-7.161l-7.82,19.583c0.572,0.197,1.096,0.353,1.541,0.451l5.514-14.895
										c0,0,0.48,21.079,0.678,29.004c0.184,7.301,1.332,26.102,1.332,26.102l41.75-1.82c0,0-1.639-23.184-2.002-31.76
										c-0.365-8.574-1.752-19.906-1.752-19.906l2.691,4.034L192.988,246.43z"/>
								</g>
								<g>
									<path style="fill:#8C2004;" d="M148.305,219.791c0,0,7.775,11.091,9.443,22.025l-4.289-0.067
										c0,0-1.686-10.792-8.756-20.287L148.305,219.791z"/>
									<path style="fill:#8C2004;" d="M174.291,218.076l3.275,0.275c0,0,3.256,14.249,2.424,23.892l-3.463-0.135
										C176.527,242.108,177.168,228.048,174.291,218.076z"/>
									<g>
										<path style="fill:#B32317;" d="M148.473,241.829c0,0,2.227,13.175-1.99,29.315l0.123,27.936l42.857-1.213l-1.305-25.424
											c-3.918-26.668-3.887-26.328-4.174-31.515C183.984,240.928,159.707,239.888,148.473,241.829z"/>
										<path style="opacity:0.4;fill:#B32317;" d="M184.076,242.546c0.307,5.66,1.182,25.004-0.24,39.227
											c-1.684,16.832-21.885,15.992-21.885,15.992s1.408,0.305,3.643,0.777l23.869-0.676l-1.305-25.424
											C184.689,248.843,184.316,246.393,184.076,242.546z"/>
									</g>
								</g>
							</g>
							<g>
								<g>
									<g>
										<path style="fill:#FBB480;" d="M152.246,208.424c0,0,3.092,6.13-0.619,11.511c0,0,9.332,7.353,16.885-1.299
											c0,0-3.455-0.482-3.607-7.195C164.904,211.441,158.961,215.122,152.246,208.424z"/>
										<path style="opacity:0.3;fill:#FBB480;" d="M165.703,215.842c0,0,0.004-0.006,0.004-0.007
											c-0.434-1.039-0.76-2.449-0.803-4.394c0,0-5.943,3.68-12.658-3.017c0,0,0.889,1.782,1.137,4.26c0,0,0,0,0,0
											C157.185,218.051,165.703,215.842,165.703,215.842z"/>
									</g>
									<g>
										<path style="fill:#FBB480;" d="M146.348,199.715c2.422,9.99,10.221,16.676,17.424,14.931
											c7.205-1.745,9.299-10.992,8.666-21.25c-1.055-17.012-10.221-16.678-17.426-14.934
											C147.809,180.207,143.932,189.719,146.348,199.715z"/>
										<path style="fill:#FBB480;" d="M142.766,198.585c0.957,2.399,2.99,3.839,4.537,3.22c1.555-0.618,2.041-3.066,1.082-5.461
											c-0.955-2.401-2.986-3.844-4.539-3.223C142.293,193.74,141.809,196.188,142.766,198.585z"/>
										<path style="opacity:0.4;fill:#FBB480;" d="M143.883,196.039c0,0,1.963-0.814,2.689,1.218
											c0.725,2.033-0.316,3.445-1.051,2.559c-0.734-0.888-0.867-1.754,0.09-2.156
											C146.572,197.257,144.912,195.969,143.883,196.039z"/>
										<g>
											<g>
												<path style="fill:#663700;" d="M154.053,190.023c0,0,2.625-1.936,4.686-2.605
													C158.738,187.418,156.385,186.767,154.053,190.023z"/>
												<path style="fill:#663700;" d="M164.654,187.661c0,0,3.26,0.073,5.299,0.803
													C169.953,188.463,168.492,186.51,164.654,187.661z"/>
												<path style="fill:#663700;" d="M157.48,194.305c0.254,1.199,0.887,2.081,1.416,1.967c0.531-0.112,0.75-1.173,0.498-2.37
													c-0.254-1.198-0.889-2.08-1.418-1.968C157.449,192.046,157.227,193.11,157.48,194.305z"/>
												<path style="fill:#663700;" d="M166.674,192.68c0.256,1.198,0.887,2.079,1.42,1.967c0.527-0.112,0.754-1.175,0.5-2.374
													c-0.254-1.197-0.889-2.076-1.416-1.966C166.646,190.42,166.422,191.481,166.674,192.68z"/>
											</g>
											<path style="fill:#FFFFFF;" d="M168.023,202.744c0,0-4.182,0.654-8.102-0.106c0,0,1.225,3.682,5.041,3.486
												C164.963,206.124,167.144,206.165,168.023,202.744z"/>
											<path style="opacity:0.4;fill:#FBB480;" d="M165.299,195.657c0,0,0.014,1.051,1.094,1.667
												c1.078,0.615,1.127,1.341,0,2.003c0,0,1.422-0.32,1.467-1.309C167.906,197.029,165.428,196.518,165.299,195.657z"/>
										</g>
										<path style="fill:#663700;" d="M142.715,194.18c0,0,2.885-3.111,5.34,1.462c0,0,1.088-4.679,0.977-6.552
											c-0.109-1.873-1.088-4.889-1.088-4.889s6.6,1.362,10.678,0.591c4.078-0.772,4.85-1.654,4.85-1.654
											s-1.654,2.094-4.85,2.645c0,0,8.6-0.329,11.574-2.314c0,0,0.141-9.278-6.033-12.143
											C157.99,168.46,136.15,170.988,142.715,194.18z"/>
									</g>
								</g>
								<g>
									<g>
										<path style="fill:#B32317;" d="M141.369,188.603c-0.326,0.397-4.23-14.365,5.002-19.367
											c9.234-5.002,19.881-5.131,25.139,8.465C171.51,177.701,149.32,178.983,141.369,188.603z"/>
										<path style="fill:#9B1C16;" d="M147.447,183.841c0,0,9.57,1.554,15.213,0.272c5.643-1.283,12.697-1.283,17.188-1.283
											c4.488,0,4.488-3.59-8.338-5.13C171.51,177.701,157.246,178.179,147.447,183.841z"/>
									</g>
									
										<rect x="152.374" y="173.24" transform="matrix(0.9728 -0.2317 0.2317 0.9728 -36.324 41.2826)" style="fill:#EEE0D5;" width="10.465" height="4.116"/>
								</g>
							</g>
						</g>
						<g>
							<g>
								<rect x="143.879" y="405.219" style="fill:#90492D;" width="198.776" height="24.753"/>
								<rect x="83.318" y="405.219" style="fill:#A3503A;" width="60.56" height="24.754"/>
								<rect x="143.879" y="405.219" style="opacity:0.3;fill:#90492D;" width="198.776" height="6.234"/>
								<rect x="83.318" y="405.219" style="opacity:0.3;fill:#A3503A;" width="60.56" height="6.234"/>
							</g>
							<g>
								<g>
									<rect x="143.879" y="307.525" style="fill:#B07660;" width="210.149" height="97.693"/>
									<rect x="74.217" y="307.525" style="fill:#C4937E;" width="69.662" height="97.693"/>
								</g>
								<g>
									<rect x="143.879" y="300.697" style="opacity:0.4;fill:#C4937E;" width="210.149" height="12.799"/>
									<rect x="74.217" y="300.697" style="opacity:0.4;fill:#C4937E;" width="69.662" height="12.799"/>
								</g>
							</g>
							<g>
								<rect x="143.879" y="294.725" style="fill:#C4937E;" width="216.977" height="12.801"/>
								<rect x="67.391" y="294.725" style="fill:#DAB4A3;" width="76.488" height="12.801"/>
							</g>
						</g>
						<g>
							<g>
								<g>
									<rect x="185.529" y="266.498" style="fill:#AFAFAF;" width="62.387" height="28.217"/>
									<polygon style="fill:#939598;" points="185.529,266.498 181.121,266.498 173.846,284.795 161.06,284.795 161.06,294.715 
										185.529,294.715 									"/>
								</g>
								<path style="fill:#58595B;" d="M241.518,255.525c0,1.387-1.135,2.523-2.523,2.523h-48.529c-1.389,0-2.523-1.137-2.523-2.523
									v-32.314c0-1.388,1.135-2.525,2.523-2.525h48.529c1.389,0,2.523,1.137,2.523,2.525V255.525z"/>
								<g>
									<polygon style="fill:#808285;" points="224.871,264.539 214.314,264.539 209.791,243.062 220.35,243.062 									"/>
									<polygon style="fill:#6D6E71;" points="214.387,264.539 212.984,264.539 208.467,243.062 209.865,243.062 									"/>
								</g>
								<polygon style="fill:#6D6E71;" points="234.797,266.498 200.973,266.498 203.336,261.207 232.434,261.207 								"/>
							</g>
							<g>
								<g>
									<g>
										<g>
											<linearGradient id="SVGID_1_" gradientUnits="userSpaceOnUse" x1="207.8662" y1="249.4436" x2="215.96" y2="249.4436">
												<stop  offset="0" style="stop-color:#79BDE8"/>
												<stop  offset="1" style="stop-color:#A4D7F4"/>
											</linearGradient>
											<path style="opacity:0.7;fill:url(#SVGID_1_);" d="M215.96,204.172h-2.805c-2.91,0-5.289,2.38-5.289,5.29v85.252h2.805
												v-85.252C210.671,206.553,213.052,204.172,215.96,204.172z"/>
										</g>
										<g style="opacity:0.3;">
											<defs>
												<path id="SVGID_00000180367891042782934570000013238922790494688689_" style="opacity:0.3;" d="M322.417,204.172H215.96
													c-2.908,0-5.289,2.38-5.289,5.29v85.252h38.409V272.25c0-1.022,0.837-1.859,1.859-1.859h37.422
													c1.022,0,1.859,0.837,1.859,1.859v22.465h37.487v-85.252C327.708,206.553,325.327,204.172,322.417,204.172z"/>
											</defs>
											<clipPath id="SVGID_00000070089506380640683530000008384070979359353780_">
												<use xlink:href="#SVGID_00000180367891042782934570000013238922790494688689_"  style="overflow:visible;"/>
											</clipPath>
											<polygon style="clip-path:url(#SVGID_00000070089506380640683530000008384070979359353780_);fill:#FFFFFF;" points="
												264.805,294.715 287.247,294.715 253.816,204.172 231.373,204.172 											"/>
											<polygon style="clip-path:url(#SVGID_00000070089506380640683530000008384070979359353780_);fill:#FFFFFF;" points="
												257.134,294.715 261.716,294.715 228.285,204.172 223.702,204.172 											"/>
											<polygon style="clip-path:url(#SVGID_00000070089506380640683530000008384070979359353780_);fill:#FFFFFF;" points="
												318.919,294.715 303.397,294.715 269.967,204.172 285.487,204.172 											"/>
										</g>
									</g>
									
										<linearGradient id="SVGID_00000042733198717251723630000018070264907165448620_" gradientUnits="userSpaceOnUse" x1="210.6709" y1="249.4436" x2="327.708" y2="249.4436">
										<stop  offset="0" style="stop-color:#B9E0F7"/>
										<stop  offset="1" style="stop-color:#E2F2FC"/>
									</linearGradient>
									<path style="opacity:0.7;fill:url(#SVGID_00000042733198717251723630000018070264907165448620_);" d="M322.417,204.172
										H215.96c-2.908,0-5.289,2.38-5.289,5.29v85.252h38.409V272.25c0-1.022,0.837-1.859,1.859-1.859h37.422
										c1.022,0,1.859,0.837,1.859,1.859v22.465h37.487v-85.252C327.708,206.553,325.327,204.172,322.417,204.172z"/>
								</g>
								<g style="opacity:0.7;">
									
										<linearGradient id="SVGID_00000147212340990994871700000013530052076251776693_" gradientUnits="userSpaceOnUse" x1="247.9082" y1="282.1074" x2="290.1602" y2="282.1074">
										<stop  offset="0" style="stop-color:#79BDE8"/>
										<stop  offset="1" style="stop-color:#A4D7F4"/>
									</linearGradient>
									<path style="opacity:0.7;fill:url(#SVGID_00000147212340990994871700000013530052076251776693_);" d="M249.08,272.25
										c0-1.022,0.837-1.859,1.859-1.859h37.422c0.868,0,1.598,0.607,1.799,1.415c-0.162-0.778-0.766-2.306-3.002-2.306
										c-3,0-36.625,0-36.625,0s-2.625,0.125-2.625,2.625s0,22.59,0,22.59h1.172V272.25z"/>
									
										<linearGradient id="SVGID_00000102508584185329323000000016313082388899477377_" gradientUnits="userSpaceOnUse" x1="290.1943" y1="272.1211" x2="290.2207" y2="272.1211">
										<stop  offset="0" style="stop-color:#79BDE8"/>
										<stop  offset="1" style="stop-color:#A4D7F4"/>
									</linearGradient>
									<path style="opacity:0.7;fill:url(#SVGID_00000102508584185329323000000016313082388899477377_);" d="M290.194,271.992
										c0.013,0.085,0.026,0.17,0.026,0.258C290.221,272.25,290.219,272.151,290.194,271.992z"/>
								</g>
							</g>
						</g>
					</g>
				</g>
			</g>
			<g>
				<path style="fill:#D1D3D4;" d="M446.951,431.119c0,1.775-19.1,3.215-42.662,3.215c-23.561,0-42.662-1.44-42.662-3.215
					c0-1.773,19.101-3.213,42.662-3.213C427.852,427.906,446.951,429.346,446.951,431.119z"/>
				<g>
					<g>
						<g>
							<g>
								<rect x="387.41" y="409.736" style="fill:#FBB480;" width="10.266" height="9.254"/>
								<g>
									<path style="fill:#663700;" d="M386.865,416.373c-0.275,0.199-9.635,7.008-13.377,7.008c-3.742,0-4.859,0.318-5.494,1.832
										c-0.635,1.512-1.352,3.979,2.471,4.697c3.82,0.715,12.658,1.434,16.719,0.078c4.059-1.354,4.457-1.033,4.777-0.477
										c0.316,0.559,3.74,0.795,6.129,0.795c2.391,0,2.945-0.637,2.865-2.469c-0.08-1.828-0.793-9.791-1.352-10.748
										c-0.559-0.955-1.672-0.717-1.672-0.717s-2.309,2.469-5.732,1.355C388.775,416.611,388.238,415.377,386.865,416.373z"/>
									<path style="fill:#A7600C;" d="M390.822,427.6c-0.955,0.158-3.664,1.353-10.43,2.148
										c-6.68,0.785-12.801-2.096-12.957-2.172c0.152,0.975,0.875,1.865,2.926,2.252c3.822,0.715,12.66,1.434,16.721,0.08
										c4.059-1.357,4.457-1.033,4.777-0.477c0.316,0.557,3.74,0.793,6.129,0.793c2.389,0,2.945-0.635,2.865-2.467
										C399.34,428.553,391.775,427.44,390.822,427.6z"/>
								</g>
							</g>
							<g>
								<rect x="422.84" y="410.971" style="fill:#FBB480;" width="10.043" height="9.734"/>
								<g>
									<path style="fill:#663700;" d="M434.184,421.969c0.06-1.014,0.873-1.668-1.111-2.922c-1.986-1.25-3.426-1.775-5.211-1.631
										c-1.783-0.144-3.223,0.381-5.207,1.631c-1.988,1.254-1.174,1.908-1.113,2.922c0.061,1.012-1.373,2.98-1.551,4.887
										c-0.178,1.908,1.252,3.996,1.252,3.996h6.619h6.621c0,0,1.43-2.088,1.252-3.996
										C435.555,424.949,434.125,422.98,434.184,421.969z"/>
									<path style="fill:#A7600C;" d="M420.563,429.6c0.33,0.742,0.68,1.252,0.68,1.252h6.619h6.621c0,0,0.35-0.51,0.68-1.252
										H420.563z"/>
								</g>
							</g>
						</g>
						<g>
							<path style="fill:#00467F;" d="M385.021,293.348c0,0-0.09,27.809-0.727,38.918c-0.635,11.107,0.443,35.49,0.125,40.908
								c-0.32,5.42,1.51,37.658,1.51,37.658s8.111,1.926,13.516,0.844c0,0,2.975-39.977,2.656-46.479
								c-0.32-6.502,2.353-45.396,2.353-45.396s16.41,92.514,16.41,94.408c0,0,7.027,1.381,12.75-0.787
								c0,0-3.83-56.451-4.582-61.525c-1.559-10.502-6.156-58.154-6.156-58.154L385.021,293.348z"/>
							<path style="opacity:0.3;fill:#00467F;" d="M408.289,319.516c0.736-0.244,2.211-3.93,2.211-3.93s-3.438,0.738-6.385,1.475
								c-2.947,0.736-2.455,2.209-2.455,2.209l-3.984,92.645c0.609-0.053,1.205-0.127,1.77-0.238c0,0,2.975-39.977,2.656-46.479
								c-0.32-6.502,2.353-45.396,2.353-45.396s8.887,50.102,13.582,77.318l0,0C418.037,397.119,407.553,319.762,408.289,319.516z"
								/>
							<path style="opacity:0.3;fill:#00467F;" d="M422.877,293.742l-20.676-0.215c0.318,1.209,1.395,2.373,3.623,3.385
								c0,0,7.375,2.469,9.586,2.715c2.207,0.244,12.402,42.51,12.435,42.648C425.871,324.777,422.877,293.742,422.877,293.742z"/>
						</g>
					</g>
					<g>
						<g>
							<g>
								<path style="fill:#FBB480;" d="M407.18,205.892c0,0,0.406,10.973,5.689,14.833c0,0-9.752,10.363-19.1,2.439
									c0,0,3.047-5.283,1.828-11.786C395.598,211.378,402.074,213.717,407.18,205.892z"/>
								<path style="opacity:0.4;fill:#FBB480;" d="M407.41,208.356C407.41,208.356,407.41,208.356,407.41,208.356
									c-0.193-1.479-0.23-2.464-0.23-2.464c-5.105,7.825-11.582,5.486-11.582,5.486c0.279,1.485,0.328,2.902,0.248,4.211
									C395.848,215.589,404.154,216.444,407.41,208.356z"/>
							</g>
							<g>
								<path style="fill:#FBB480;" d="M411.094,196.296c-0.297,10.123-6.455,18.155-13.752,17.941
									c-7.299-0.214-11.203-8.699-12.682-18.717c-2.447-16.61,6.455-18.155,13.754-17.941
									C405.711,177.794,411.389,186.171,411.094,196.296z"/>
								<g>
									<path style="fill:#FBB480;" d="M414.314,194.48c-0.432,2.505-2.1,4.31-3.719,4.029c-1.621-0.281-2.588-2.54-2.154-5.045
										c0.434-2.508,2.102-4.312,3.723-4.031C413.783,189.713,414.75,191.973,414.314,194.48z"/>
									<path style="opacity:0.4;fill:#FBB480;" d="M412.723,192.252c0,0-2.059-0.383-2.346,1.723
										c-0.287,2.106,1.006,3.255,1.533,2.25c0.525-1.004,0.477-1.866-0.529-2.058
										C410.377,193.976,411.715,192.397,412.723,192.252z"/>
								</g>
								<path style="fill:#663700;" d="M409.103,191.507c0,0,0.006-1.973-0.908-3.396c-0.914-1.422-2.525-3.877-2.438-5.384
									c0,0-4.734-1.367-9.205,0.665c-4.469,2.032-7.111,3.149-7.111,3.149s0.813-1.626,1.627-1.93
									c0.813-0.305-6.76,4.02-10.77,1.219c-2.721-1.899,0.465-14.685,0.465-14.685s7.213,2.438,12.293,1.727
									c0,0-2.031-0.102-2.945-0.914c0,0,4.978,1.32,8.33,0.914c3.354-0.407,7.824,0.102,8.23,2.845c0,0,3.758-0.914,5.994,2.54
									c2.236,3.455-0.502,11.176-0.502,11.176S410.314,189.72,409.103,191.507z"/>
								<g>
									<g>
										<path style="fill:#663700;" d="M397.078,187.713c0,0,3.049,1.016,5.182,1.016
											C402.26,188.729,400.256,190.056,397.078,187.713z"/>
										<path style="fill:#663700;" d="M390.664,187.797c0,0-2.492,2.027-4.49,2.781
											C386.174,190.579,388.518,191.112,390.664,187.797z"/>
										<path style="fill:#663700;" d="M399.264,193.352c0,1.206-0.432,2.184-0.967,2.184c-0.531,0-0.965-0.978-0.965-2.184
											c0-1.207,0.434-2.185,0.965-2.185C398.832,191.168,399.264,192.146,399.264,193.352z"/>
										<path style="fill:#663700;" d="M390.068,193.657c0,1.207-0.432,2.185-0.965,2.185s-0.965-0.978-0.965-2.185
											c0-1.206,0.432-2.184,0.965-2.184S390.068,192.45,390.068,193.657z"/>
									</g>
									<path style="fill:#FFFFFF;" d="M391.898,203.155c0,0,4.164,0.305,7.924-1.422c0,0-0.813,5.588-4.572,5.893
										C395.25,207.626,393.117,208.033,391.898,203.155z"/>
									<path style="opacity:0.4;fill:#FBB480;" d="M391.998,196.247c0,0,0.205,1.016-0.711,1.828
										c-0.914,0.813-0.813,1.524,0.406,1.931c0,0-1.434-0.019-1.68-0.962C389.77,198.101,392.055,197.104,391.998,196.247z"/>
								</g>
							</g>
						</g>
						<g>
							<g>
								<g>
									<g>
										<path style="fill:#FBB480;" d="M341.809,253.287c0,0-4.998-5.215-6.371-6.619c-1.377-1.404-4.76-4.118-4.76-4.118
											s-8.072-0.62-10.342-0.975c-2.264-0.357,1.34,15.159,1.34,15.159s5.529,1.461,7.508,0.799
											c1.978-0.658,7.615,3.668,7.615,3.668S340.455,259.068,341.809,253.287z"/>
										<path style="opacity:0.3;fill:#FBB480;" d="M326.129,245.699l-3.797-2.162l-2.674-0.447
											c-0.088,3.859,2.018,13.645,2.018,13.645s1.783,0.467,3.326,0.719c0,0-0.975-7.148,1.31-6.828
											c3.254,0.455,6.477-2.01,6.477-2.01L326.129,245.699z"/>
									</g>
									<g>
										<path style="fill:#BCBEC0;" d="M322.127,256.26c-0.365,0.854-1.361,1.256-2.215,0.896l-19.809-8.33
											c-0.851-0.359-1.252-1.348-0.889-2.2l3.984-9.307c0.363-0.852,1.361-1.254,2.215-0.895l19.803,8.325
											c0.853,0.36,1.254,1.349,0.891,2.2L322.127,256.26z"/>
										<polygon style="fill:#6D6E71;" points="322.762,254.768 299.857,245.135 300.998,242.455 323.908,252.096 										"/>
										<polygon style="fill:#FFFFFF;" points="308.813,243.017 304.059,241.018 305.152,238.467 309.906,240.463 										"/>
										<polygon style="fill:#FFFFFF;" points="322.199,249.363 317.813,247.516 318.125,246.789 322.51,248.63 										"/>
									</g>
								</g>
								<path style="fill:#FBB480;" d="M325.674,246.935c-0.285-0.432-2.92-1.382-4.609-2.343c-1.695-0.961-2.992-3.374-0.729-3.017
									c2.27,0.355,10.342,0.975,10.342,0.975s3.383,2.714,4.76,4.118C335.438,246.668,329.508,252.77,325.674,246.935z"/>
							</g>
							<path style="fill:#FBB480;" d="M429.674,303.301c0,0-1.258,2.496-2.189,3.545c-0.934,1.051-1.402,2.799-1.867,4.082
								c-0.465,1.283-1.867,4.316-1.75,5.365c0.117,1.051,0.584,2.102,1.982,2.568c1.4,0.467,2.566,0.232,3.268,0.699
								s1.4,0.701,2.449,0.701c1.051,0,3.033,0,3.383,0.232c0.352,0.232,1.635,0.35,2.568-0.352
								c0.932-0.701,1.748-4.664,1.281-6.297c-0.465-1.635-0.383-7.51-0.383-7.51l0.967-4.041l-8.984-2.332L429.674,303.301z"/>
							<g>
								<g>
									<path style="fill:#FFD457;" d="M424.744,293.639c-1.053-7.785-1.684-49.661-1.684-49.661s8.631,22.553,9.443,25.399
										c0.813,2.844-3.68,33.129-3.68,33.129c2.234,2.844,10.973,4.064,10.973,4.064s6.193-32.203,6.193-35.25
										s-6.814-26.583-9.053-34.042c-2.746-9.153-10.049-12.754-16.346-14.989c-6.299-2.235-9.994-4.05-9.994-4.05
										s-2.869,6.229-8.701,6.55c-5.832,0.32-6.641-5.513-6.641-5.513s-15.568,5.544-17.945,9.78
										c-1.025,1.824-14.947,29.096-17.689,28.625c-4.19-0.717-18.369-6.379-18.369-6.379l-6.08,10.83
										c0,0,20.92,12.697,30.557,10.609c6.09-1.32,17.475-26.211,17.475-26.211s0.063,3.274,0.113,10.288
										c0.061,8.223-0.465,12.101-0.699,37.818C382.617,294.637,411.08,297.031,424.744,293.639z"/>
									<g>
										<path style="opacity:0.4;fill:#FFD457;" d="M426.145,252.082c-0.914-6.626-4.557-14.837-4.557-14.837
											s-0.42,47.136-1.053,51.554c-0.631,4.42-10.73,6.543-10.73,6.543l0,0c5.529-0.203,10.887-0.697,14.939-1.703
											c-1.053-7.785-1.684-49.661-1.684-49.661S424.439,247.579,426.145,252.082L426.145,252.082z"/>
										<path style="opacity:0.4;fill:#FFD457;" d="M383.314,259.551c0.084-4.418,3.344-20.201,3.344-20.201l-3.455,7.181
											c0,0,0.063,3.274,0.113,10.288C383.322,257.773,383.32,258.67,383.314,259.551L383.314,259.551z"/>
									</g>
								</g>
								<g>
									<path style="fill:#E7A614;" d="M410.598,218.239c0,0-7.684,5.814-10.195,6.033l4.879,6.289c0,0,7.121-5.755,7.762-10.996
										L410.598,218.239z"/>
									<path style="fill:#E7A614;" d="M400.402,224.272c0,0-3.353-1.343-5.146-4.996l-2.816,0.987c0,0,0.686,5.893,5.258,10.059
										L400.402,224.272z"/>
								</g>
							</g>
						</g>
					</g>
				</g>
			</g>
		</g>
	</g>
</g>
</svg>
